Coordinates
version=1
nRows=13
nColumns=63
inDegrees=yes

Units are S.I. units (second, meters, Newtons, ...)
If the header above contains a line with 'inDegrees', this indicates whether rotational values are in degrees (yes) or radians (no).

endheader
time	pelvis_tilt	pelvis_list	pelvis_rotation	pelvis_tx	pelvis_ty	pelvis_tz	hip_flexion_r	hip_adduction_r	hip_rotation_r	knee_angle_r	knee_angle_r_beta	ankle_angle_r	subtalar_angle_r	mtp_angle_r	hip_flexion_l	hip_adduction_l	hip_rotation_l	knee_angle_l	knee_angle_l_beta	ankle_angle_l	subtalar_angle_l	mtp_angle_l	L5_S1_Flex_Ext	L5_S1_Lat_Bending	L5_S1_axial_rotation	L4_L5_Flex_Ext	L4_L5_Lat_Bending	L4_L5_axial_rotation	L3_L4_Flex_Ext	L3_L4_Lat_Bending	L3_L4_axial_rotation	L2_L3_Flex_Ext	L2_L3_Lat_Bending	L2_L3_axial_rotation	L1_L2_Flex_Ext	L1_L2_Lat_Bending	L1_L2_axial_rotation	L1_T12_Flex_Ext	L1_T12_Lat_Bending	L1_T12_axial_rotation	Abs_r3	Abs_r2	Abs_r1	Abs_t1	Abs_t2	neck_flexion	neck_bending	neck_rotation	arm_flex_r	arm_add_r	arm_rot_r	elbow_flex_r	pro_sup_r	wrist_flex_r	wrist_dev_r	arm_flex_l	arm_add_l	arm_rot_l	elbow_flex_l	pro_sup_l	wrist_flex_l	wrist_dev_l
2.982456	3.076335	-3.411746	95.078939	0.196173	1.006885	0.462462	-7.332829	2.111991	-16.208384	5.477294	0.095597	24.507399	-13.568645	0.000000	-8.042575	-9.439259	-5.739175	2.684741	0.046858	36.856504	8.678490	0.000000	0.218140	0.558248	0.018206	0.405107	0.742470	0.019344	0.358382	1.357324	0.019344	0.249312	1.357324	0.015930	0.202564	1.138379	0.014792	0.124645	0.864726	0.013655	1.558149	6.315012	0.101256	0.000000	0.000000	12.883764	5.163632	-13.593531	8.378197	-15.035207	47.749056	63.636567	49.450670	5.890755	3.780158	20.942501	0.692970	121.743162	20.700095	19.328640	19.291616	-14.481453
3.000000	2.968739	-3.412912	95.148314	0.195576	1.007255	0.463495	-7.369860	2.011704	-15.759347	5.281759	0.092184	24.329576	-13.962369	0.000000	-7.959892	-9.307326	-5.730468	2.766368	0.048282	36.769205	8.910908	0.000000	0.228163	0.556050	0.072212	0.423722	0.739547	0.076725	0.374849	1.351981	0.076725	0.260768	1.351981	0.063185	0.211872	1.133898	0.058672	0.130373	0.861322	0.054159	1.629748	6.290154	0.401620	0.000000	0.000000	12.369131	4.678206	-14.203502	8.962794	-14.876438	49.161273	64.003959	46.048822	5.895911	5.279185	20.746666	-0.755068	111.018218	26.089282	21.135923	18.680792	-10.964285
3.017544	2.841844	-3.441162	95.181377	0.195183	1.007573	0.464411	-7.318367	1.877729	-15.267358	5.208377	0.090903	24.301109	-14.275518	0.000000	-7.851912	-9.160916	-5.829028	2.860273	0.049921	36.717782	9.227041	0.000000	0.239273	0.549101	0.113381	0.444355	0.730304	0.120468	0.393102	1.335084	0.120468	0.273466	1.335084	0.099209	0.222189	1.119727	0.092122	0.136721	0.850557	0.085036	1.709106	6.211539	0.630594	0.000000	0.000000	11.885814	4.251604	-14.804556	9.584114	-14.669458	50.531258	64.109134	44.554980	5.151466	6.879613	20.430071	-2.275067	100.849848	31.428211	22.955807	17.225532	-7.310649
3.035088	2.683892	-3.482891	95.220071	0.194951	1.007856	0.465166	-7.216028	1.703480	-14.816506	5.217130	0.091056	24.434126	-14.451321	0.000000	-7.721704	-8.995269	-6.016091	2.970197	0.051840	36.716814	9.667257	0.000000	0.249863	0.535404	0.129570	0.464020	0.712088	0.137668	0.410499	1.301782	0.137668	0.285568	1.301782	0.113374	0.232023	1.091796	0.105276	0.142772	0.829341	0.097178	1.784744	6.056599	0.720631	0.000000	0.000000	11.439129	3.906346	-15.406622	10.274650	-14.435807	52.082379	63.944813	43.896030	3.365965	8.050357	20.011432	-3.833700	91.623417	36.533083	24.886793	14.943363	-3.845138
3.052632	2.513715	-3.537602	95.248909	0.194875	1.008094	0.465758	-7.054825	1.502278	-14.393018	5.320471	0.092860	24.716426	-14.517361	0.000000	-7.575921	-8.824758	-6.267067	3.089960	0.053930	36.769478	10.172338	0.000000	0.260040	0.518330	0.127872	0.482920	0.689379	0.135864	0.427220	1.260268	0.135864	0.297200	1.260268	0.111888	0.241473	1.056979	0.103896	0.148587	0.802893	0.095904	1.857440	5.863455	0.711187	0.000000	0.000000	11.074427	3.641394	-15.946061	10.927656	-14.195351	53.579929	63.612678	44.042009	0.847921	8.806242	19.505724	-5.370375	83.551888	41.256654	26.780657	12.070184	-0.736886
3.070175	2.341440	-3.605312	95.254478	0.194890	1.008299	0.466163	-6.854079	1.284387	-14.022049	5.476609	0.095585	25.095896	-14.474697	0.000000	-7.433665	-8.649809	-6.585528	3.195168	0.055766	36.852021	10.722942	0.000000	0.270809	0.499519	0.119377	0.502920	0.664360	0.126838	0.444913	1.214531	0.126838	0.309508	1.214531	0.104455	0.251473	1.018619	0.096994	0.154740	0.773755	0.089533	1.934364	5.650660	0.663940	0.000000	0.000000	10.790512	3.448786	-16.505737	11.438846	-13.984305	54.831092	63.224217	45.066992	-2.073894	9.286328	18.935740	-6.806841	76.794492	45.453092	28.467496	8.886249	1.906370
3.087719	2.205195	-3.675694	95.242217	0.194961	1.008469	0.466475	-6.596078	1.077323	-13.751700	5.749660	0.100350	25.576862	-14.306074	0.000000	-7.288091	-8.515153	-6.962364	3.320240	0.057949	36.968777	11.291282	0.000000	0.280939	0.484735	0.106890	0.521732	0.644698	0.113571	0.461555	1.178585	0.113571	0.321085	1.178585	0.093529	0.260880	0.988472	0.086848	0.160529	0.750855	0.080168	2.006721	5.483420	0.594490	0.000000	0.000000	10.602064	3.305727	-16.991631	11.796033	-13.828440	55.761437	62.825662	47.054947	-4.934299	9.697659	18.378786	-8.072903	71.361087	48.981298	29.802977	5.871914	4.114471
3.105263	2.101580	-3.747780	95.174592	0.195087	1.008606	0.466728	-6.286579	0.876987	-13.579987	6.131110	0.107008	26.088031	-14.056776	0.000000	-7.162043	-8.406162	-7.420570	3.447563	0.060171	37.082694	11.833852	0.000000	0.290170	0.473302	0.110978	0.538874	0.629491	0.117914	0.476720	1.150785	0.117914	0.331635	1.150785	0.097106	0.269452	0.965157	0.090170	0.165803	0.733144	0.083234	2.072654	5.354082	0.617228	0.000000	0.000000	10.501729	3.180181	-17.569153	11.903403	-13.735680	56.183352	62.466802	50.061888	-7.426592	10.065072	17.932517	-9.072091	67.407572	51.674895	30.617884	3.411059	5.811893
3.122807	2.041224	-3.811935	95.106556	0.195150	1.008702	0.467001	-5.941571	0.692059	-13.645399	6.635935	0.115819	26.607479	-13.663705	0.000000	-7.039194	-8.343041	-7.901638	3.605775	0.062933	37.195739	12.333763	0.000000	0.298225	0.468098	0.111961	0.553835	0.622571	0.118958	0.489955	1.138134	0.118958	0.340842	1.138134	0.097966	0.276932	0.954546	0.090968	0.170406	0.725084	0.083971	2.130195	5.295223	0.622693	0.000000	0.000000	10.473102	3.115821	-17.996495	11.888356	-13.708561	56.261588	62.093435	54.146346	-9.328057	10.430369	17.638747	-9.728560	65.144345	53.381605	30.882518	1.780181	6.938678
3.140351	2.035484	-3.857312	95.020414	0.195150	1.008773	0.467340	-5.579595	0.535655	-13.976482	7.254593	0.126617	27.071156	-13.126896	0.000000	-6.934665	-8.334309	-8.412077	3.795128	0.066237	37.303408	12.758075	0.000000	0.303999	0.470700	0.116244	0.564556	0.626031	0.123510	0.499439	1.144459	0.123510	0.347440	1.144459	0.101714	0.282293	0.959851	0.094449	0.173705	0.729114	0.087183	2.171432	5.324648	0.646517	0.000000	0.000000	10.495443	3.080174	-18.307950	11.808759	-13.763175	56.047346	61.672217	59.307917	-10.650475	10.651072	17.579572	-9.931894	65.008686	53.927052	30.481955	1.089928	7.403029
3.157895	2.072265	-3.873559	94.895649	0.195099	1.008822	0.467758	-5.213382	0.400730	-14.501657	7.983350	0.139336	27.448884	-12.527117	0.000000	-6.869918	-8.365339	-8.973323	4.003952	0.069882	37.409000	13.118354	0.000000	0.306490	0.479475	0.129592	0.569183	0.637702	0.137692	0.503532	1.165796	0.137692	0.350287	1.165796	0.113393	0.284607	0.977746	0.105294	0.175128	0.742707	0.097194	2.189227	5.423921	0.720754	0.000000	0.000000	10.541140	3.095584	-18.533517	11.728122	-13.891737	55.604815	61.169792	65.886223	-11.585398	10.533786	17.799460	-9.597554	67.240907	53.153192	29.333755	1.543028	7.112637
3.175439	2.156738	-3.859383	94.769861	0.194924	1.008890	0.468292	-4.866706	0.293956	-15.337183	8.778770	0.153218	27.759765	-11.707169	0.000000	-6.825034	-8.443205	-9.502630	4.243237	0.074058	37.510625	13.366612	0.000000	0.306499	0.494891	0.142371	0.569200	0.658205	0.151270	0.503547	1.203278	0.151270	0.350298	1.203278	0.124575	0.284615	1.009182	0.115677	0.175134	0.766586	0.106779	2.189293	5.598306	0.791828	0.000000	0.000000	10.571819	3.161972	-18.688999	11.740708	-14.082723	55.056132	60.510178	73.766299	-12.059123	9.943972	18.278526	-8.664942	71.934112	50.943510	27.438397	3.171388	5.927253
3.192982	2.142312	-3.857353	94.743876	0.195074	1.008710	0.468645	-4.589573	0.137058	-16.354470	9.500148	0.165809	28.056723	-10.891726	0.000000	-6.757797	-8.456590	-9.832287	4.492012	0.078400	37.592650	13.468269	0.000000	0.307361	0.495647	0.097551	0.570801	0.659211	0.103648	0.504964	1.205117	0.103648	0.351283	1.205117	0.085357	0.285416	1.010724	0.079260	0.175626	0.767758	0.073163	2.195451	5.606863	0.542548	0.000000	0.000000	10.673136	3.295811	-18.540880	11.903486	-14.152461	55.251400	60.099273	75.729624	-13.616747	9.106654	18.172373	-8.739237	70.674840	50.949346	30.626352	3.535956	5.726047
